<svg xmlns="http://www.w3.org/2000/svg" id="Layer_1" width="128" height="128" data-name="Layer 1" viewBox="0 0 64 64"><title>Dusk Part 1</title><rect width="54" height="50" x="5" y="7" fill="#cda1a7" rx="2" ry="2"/><path fill="#c4939c" d="M9,52H55a4,4,0,0,1,4,4v0a1,1,0,0,1-1,1H6a1,1,0,0,1-1-1v0a4,4,0,0,1,4-4Z"/><path fill="#8d6c9f" d="M57,6H7A3,3,0,0,0,4,9V55a3,3,0,0,0,3,3H57a3,3,0,0,0,3-3V9A3,3,0,0,0,57,6Zm1,49a1,1,0,0,1-1,1H7a1,1,0,0,1-1-1V9A1,1,0,0,1,7,8H57a1,1,0,0,1,1,1Z"/><path fill="#8d6c9f" d="M14,50a1,1,0,0,0-1,1v2a1,1,0,0,0,2,0V51A1,1,0,0,0,14,50Z"/><path fill="#8d6c9f" d="M9,50a1,1,0,0,0-1,1v2a1,1,0,0,0,2,0V51A1,1,0,0,0,9,50Z"/><path fill="#8d6c9f" d="M29,50a1,1,0,0,0-1,1v2a1,1,0,0,0,2,0V51A1,1,0,0,0,29,50Z"/><path fill="#8d6c9f" d="M34,50a1,1,0,0,0-1,1v2a1,1,0,0,0,2,0V51A1,1,0,0,0,34,50Z"/><path fill="#8d6c9f" d="M39,50a1,1,0,0,0-1,1v2a1,1,0,0,0,2,0V51A1,1,0,0,0,39,50Z"/><path fill="#8d6c9f" d="M44,50a1,1,0,0,0-1,1v2a1,1,0,0,0,2,0V51A1,1,0,0,0,44,50Z"/><path fill="#8d6c9f" d="M49,50a1,1,0,0,0-1,1v2a1,1,0,0,0,2,0V51A1,1,0,0,0,49,50Z"/><path fill="#8d6c9f" d="M54,50a1,1,0,0,0-1,1v2a1,1,0,0,0,2,0V51A1,1,0,0,0,54,50Z"/><path fill="#8d6c9f" d="M19,50a1,1,0,0,0-1,1v2a1,1,0,0,0,2,0V51A1,1,0,0,0,19,50Z"/><path fill="#8d6c9f" d="M24,50a1,1,0,0,0-1,1v2a1,1,0,0,0,2,0V51A1,1,0,0,0,24,50Z"/><path fill="#faefde" d="M49,22H15a1,1,0,0,0,0,2H49a1,1,0,0,0,0-2Z"/><path fill="#faefde" d="M49,30H15a1,1,0,0,0,0,2H49a1,1,0,0,0,0-2Z"/><path fill="#faefde" d="M49,38H15a1,1,0,0,0,0,2H49a1,1,0,0,0,0-2Z"/></svg>