<svg xmlns="http://www.w3.org/2000/svg" id="Layer_1" width="128" height="128" data-name="Layer 1" viewBox="0 0 64 64"><title>Icons8 RSL Colored Part 7</title><rect width="58" height="46" x="5" y="5" fill="#c5e4fa" rx="2" ry="2"/><path fill="#ced8ed" d="M7,5H61a2,2,0,0,1,2,2V17a0,0,0,0,1,0,0H5a0,0,0,0,1,0,0V7A2,2,0,0,1,7,5Z"/><polygon fill="#e3f2ff" points="63 17 63 33.68 45.68 51 26.43 51 60.43 17 63 17"/><polygon fill="#e3f2ff" points="56.52 17 22.52 51 14.82 51 48.82 17 56.52 17"/><polygon fill="#e3f2ff" points="44.4 17 10.4 51 9.12 51 43.12 17 44.4 17"/><rect width="30" height="4" x="29" y="9" fill="#c5e4fa"/><polygon fill="#fff8f8" points="21.66 21.83 22.9 24.1 25.17 25.34 22.9 26.57 21.66 28.84 20.43 26.57 18.16 25.34 20.43 24.1 21.66 21.83"/><polygon fill="#fff8f8" points="40.58 27 41.44 28.56 43 29.42 41.44 30.27 40.58 31.84 39.73 30.27 38.16 29.42 39.73 28.56 40.58 27"/><polygon fill="#fff8f8" points="30.81 37.54 31.39 38.61 32.46 39.19 31.39 39.77 30.81 40.84 30.23 39.77 29.16 39.19 30.23 38.61 30.81 37.54"/><path fill="#8d6c9f" d="M61,4H7A3,3,0,0,0,4,7V49a3,3,0,0,0,3,3H61a3,3,0,0,0,3-3V7A3,3,0,0,0,61,4Zm1,45a1,1,0,0,1-1,1H7a1,1,0,0,1-1-1V18H62Zm0-33H6V7A1,1,0,0,1,7,6H61a1,1,0,0,1,1,1Z"/><circle cx="10" cy="11" r="2" fill="#ed7899"/><circle cx="16" cy="11" r="2" fill="#ffeb9b"/><circle cx="22" cy="11" r="2" fill="#72caaf"/><path fill="#8d6c9f" d="M19,48a1,1,0,0,0,1-1V45a1,1,0,0,0-2,0v2A1,1,0,0,0,19,48Z"/><path fill="#8d6c9f" d="M14,48a1,1,0,0,0,1-1V45a1,1,0,0,0-2,0v2A1,1,0,0,0,14,48Z"/><path fill="#8d6c9f" d="M9,48a1,1,0,0,0,1-1V45a1,1,0,0,0-2,0v2A1,1,0,0,0,9,48Z"/><path fill="#8d6c9f" d="M24,48a1,1,0,0,0,1-1V45a1,1,0,0,0-2,0v2A1,1,0,0,0,24,48Z"/><path fill="#8d6c9f" d="M29,48a1,1,0,0,0,1-1V45a1,1,0,0,0-2,0v2A1,1,0,0,0,29,48Z"/><path fill="#8d6c9f" d="M39,44a1,1,0,0,0-1,1v2a1,1,0,0,0,2,0V45A1,1,0,0,0,39,44Z"/><path fill="#8d6c9f" d="M44,44a1,1,0,0,0-1,1v2a1,1,0,0,0,2,0V45A1,1,0,0,0,44,44Z"/><path fill="#8d6c9f" d="M49,44a1,1,0,0,0-1,1v2a1,1,0,0,0,2,0V45A1,1,0,0,0,49,44Z"/><path fill="#8d6c9f" d="M54,44a1,1,0,0,0-1,1v2a1,1,0,0,0,2,0V45A1,1,0,0,0,54,44Z"/><path fill="#8d6c9f" d="M59,48a1,1,0,0,0,1-1V45a1,1,0,0,0-2,0v2A1,1,0,0,0,59,48Z"/><path fill="#8d6c9f" d="M58,8H30a2,2,0,0,0-2,2v2a2,2,0,0,0,2,2H58a2,2,0,0,0,2-2V10A2,2,0,0,0,58,8ZM30,12V10H58v2Z"/><polygon fill="#faefde" points="17.59 58.16 47.1 28.66 41 28.66 41 23 57 23 57 39 51.34 39 51.34 32.9 21.84 62.41 17.59 58.16"/><path fill="#8d6c9f" d="M57,22H41a1,1,0,0,0-1,1v5.66a1,1,0,0,0,1,1h3.69l-27.8,27.8a1,1,0,0,0,0,1.41l4.24,4.24a1,1,0,0,0,1.41,0l27.8-27.8V39a1,1,0,0,0,1,1H57a1,1,0,0,0,1-1V23A1,1,0,0,0,57,22ZM56,38H52.34V32.9a1,1,0,0,0-1.71-.71L21.84,61,19,58.16l28.8-28.8a1,1,0,0,0-.71-1.71H42V24H56Z"/></svg>