<svg xmlns="http://www.w3.org/2000/svg" id="Layer_1" width="128" height="128" data-name="Layer 1" viewBox="0 0 64 64"><title>Icons8 RSL Colored Part 11</title><rect width="53" height="38" x="5" y="15" fill="#85cbf8"/><path fill="#6fc6f0" d="M58,53H40l-8,8-8-8H6a1,1,0,0,1-1-1H5a4,4,0,0,1,4-4H56a3,3,0,0,1,3,3v1A1,1,0,0,1,58,53Z"/><rect width="54" height="10" x="5" y="5" fill="#c2cde7"/><path fill="#8d6c9f" d="M57,4H7A3,3,0,0,0,4,7V51a3,3,0,0,0,3,3H24.09a1,1,0,0,1,.75.34l5.64,6.45a2,2,0,0,0,1.5.68h0a2,2,0,0,0,1.51-.7L39,54.35a1,1,0,0,1,.76-.35H57a3,3,0,0,0,3-3V7A3,3,0,0,0,57,4ZM6,7A1,1,0,0,1,7,6H57a1,1,0,0,1,1,1v7H6ZM57,52H39.79a3,3,0,0,0-2.27,1L32,59.47,26.35,53a3,3,0,0,0-2.26-1H7a1,1,0,0,1-1-1V16H58V51A1,1,0,0,1,57,52Z"/><path fill="#8d6c9f" d="M19,8a1,1,0,0,0-1,1v2a1,1,0,0,0,2,0V9A1,1,0,0,0,19,8Z"/><path fill="#8d6c9f" d="M14,8a1,1,0,0,0-1,1v2a1,1,0,0,0,2,0V9A1,1,0,0,0,14,8Z"/><path fill="#8d6c9f" d="M9,8A1,1,0,0,0,8,9v2a1,1,0,0,0,2,0V9A1,1,0,0,0,9,8Z"/><path fill="#8d6c9f" d="M24,8a1,1,0,0,0-1,1v2a1,1,0,0,0,2,0V9A1,1,0,0,0,24,8Z"/><path fill="#8d6c9f" d="M29,8a1,1,0,0,0-1,1v2a1,1,0,0,0,2,0V9A1,1,0,0,0,29,8Z"/><path fill="#8d6c9f" d="M34,8a1,1,0,0,0-1,1v2a1,1,0,0,0,2,0V9A1,1,0,0,0,34,8Z"/><path fill="#8d6c9f" d="M39,8a1,1,0,0,0-1,1v2a1,1,0,0,0,2,0V9A1,1,0,0,0,39,8Z"/><path fill="#8d6c9f" d="M44,8a1,1,0,0,0-1,1v2a1,1,0,0,0,2,0V9A1,1,0,0,0,44,8Z"/><path fill="#8d6c9f" d="M49,8a1,1,0,0,0-1,1v2a1,1,0,0,0,2,0V9A1,1,0,0,0,49,8Z"/><path fill="#8d6c9f" d="M54,8a1,1,0,0,0-1,1v2a1,1,0,0,0,2,0V9A1,1,0,0,0,54,8Z"/><path fill="#f5f5f5" d="M23,26h4a1,1,0,0,0,0-2H23a1,1,0,0,0,0,2Z"/><path fill="#f5f5f5" d="M48,24H31a1,1,0,0,0,0,2H48a1,1,0,0,0,0-2Z"/><path fill="#f5f5f5" d="M48,32H23a1,1,0,0,0,0,2H48a1,1,0,0,0,0-2Z"/><path fill="#f5f5f5" d="M38,40H23a1,1,0,0,0,0,2H38a1,1,0,0,0,0-2Z"/><circle cx="16" cy="25" r="2" fill="#f5f5f5"/><circle cx="16" cy="33" r="2" fill="#f5f5f5"/><circle cx="16" cy="41" r="2" fill="#f5f5f5"/></svg>