<svg xmlns="http://www.w3.org/2000/svg" id="Layer_1" width="128" height="128" data-name="Layer 1" viewBox="0 0 64 64"><title>Icons8 RSL Colored Part 12</title><path fill="#f9dd8f" d="M61,15V49a4,4,0,0,1-4,4H7a3.93,3.93,0,0,1-1.64-.36A4,4,0,0,1,3.1,49.9,4.43,4.43,0,0,1,3,49V15a4,4,0,0,1,4-4H57a4,4,0,0,1,4,4Z"/><path fill="#ffefb8" d="M61,15V26L34,53H19L59.83,12.17A4,4,0,0,1,61,15Z"/><polygon fill="#ffefb8" points="57 11 15 53 9 53 51 11 57 11"/><path fill="#ffefb8" d="M47,11,5.36,52.64A4,4,0,0,1,3.1,49.9L42,11Z"/><path fill="#f5c872" d="M61,49h0a4,4,0,0,1-4,4H7a3.93,3.93,0,0,1-1.64-.36A4,4,0,0,1,3.1,49.9,4.43,4.43,0,0,1,3,49V48H60A1,1,0,0,1,61,49Z"/><path fill="#8d6c9f" d="M57,10H7a5,5,0,0,0-5,5V49a5,5,0,0,0,5,5H57a5,5,0,0,0,5-5V15A5,5,0,0,0,57,10Zm3,39a3,3,0,0,1-3,3H7a3,3,0,0,1-3-3V15a3,3,0,0,1,3-3H57a3,3,0,0,1,3,3Z"/><path fill="#8d6c9f" d="M7,46a1,1,0,0,0-1,1v2a1,1,0,0,0,2,0V47A1,1,0,0,0,7,46Z"/><path fill="#8d6c9f" d="M12,46a1,1,0,0,0-1,1v2a1,1,0,0,0,2,0V47A1,1,0,0,0,12,46Z"/><path fill="#8d6c9f" d="M17,46a1,1,0,0,0-1,1v2a1,1,0,0,0,2,0V47A1,1,0,0,0,17,46Z"/><path fill="#8d6c9f" d="M22,46a1,1,0,0,0-1,1v2a1,1,0,0,0,2,0V47A1,1,0,0,0,22,46Z"/><path fill="#8d6c9f" d="M27,46a1,1,0,0,0-1,1v2a1,1,0,0,0,2,0V47A1,1,0,0,0,27,46Z"/><path fill="#8d6c9f" d="M32,46a1,1,0,0,0-1,1v2a1,1,0,0,0,2,0V47A1,1,0,0,0,32,46Z"/><path fill="#8d6c9f" d="M37,46a1,1,0,0,0-1,1v2a1,1,0,0,0,2,0V47A1,1,0,0,0,37,46Z"/><path fill="#8d6c9f" d="M42,46a1,1,0,0,0-1,1v2a1,1,0,0,0,2,0V47A1,1,0,0,0,42,46Z"/><path fill="#8d6c9f" d="M47,46a1,1,0,0,0-1,1v2a1,1,0,0,0,2,0V47A1,1,0,0,0,47,46Z"/><path fill="#8d6c9f" d="M52,46a1,1,0,0,0-1,1v2a1,1,0,0,0,2,0V47A1,1,0,0,0,52,46Z"/><path fill="#8d6c9f" d="M57,46a1,1,0,0,0-1,1v2a1,1,0,0,0,2,0V47A1,1,0,0,0,57,46Z"/><path fill="#8d6c9f" d="M28.32,22.05a1,1,0,0,0-1.27.63L22,37.84,16.95,22.68a1,1,0,1,0-1.9.63l6,18,0,.07.06.12a1,1,0,0,0,.14.19l.08.08a1,1,0,0,0,.28.16h0a1,1,0,0,0,.62,0h0a1,1,0,0,0,.28-.16l.08-.08a1,1,0,0,0,.14-.19l.06-.12,0-.07,6-18A1,1,0,0,0,28.32,22.05Z"/><path fill="#8d6c9f" d="M33,22a1,1,0,0,0-1,1V41a1,1,0,0,0,2,0V23A1,1,0,0,0,33,22Z"/><path fill="#8d6c9f" d="M45,22H39a1,1,0,0,0-1,1V41a1,1,0,0,0,2,0V34h5a5,5,0,0,0,5-5V27A5,5,0,0,0,45,22Zm3,7a3,3,0,0,1-3,3H40V24h5a3,3,0,0,1,3,3Z"/><polygon fill="#fff8f8" points="50.34 14 49.1 16.26 46.83 17.5 49.1 18.74 50.34 21 51.57 18.74 53.84 17.5 51.57 16.26 50.34 14"/><polygon fill="#fff8f8" points="11.41 19 10.56 20.56 9 21.42 10.56 22.27 11.41 23.84 12.27 22.27 13.83 21.42 12.27 20.56 11.41 19"/><polygon fill="#fff8f8" points="47.48 37.7 46.9 38.77 45.83 39.35 46.9 39.94 47.48 41 48.06 39.94 49.13 39.35 48.06 38.77 47.48 37.7"/></svg>